REM DIRINDEX 1\3,1\4,1\5,1\6,1\2\7,1\2\8,1\2\9,1\10
REM DIRNAME folder01,folder02,folder03,folder04,folder05,folder06,folder07,folder08,folder09,folder10
TITLE ""
FILE "2-56 Level 6-1022-1032.mp3" MP3
  TRACK 01 AUDIO
    TITLE "0:"
    INDEX 01 00:00:00
  TRACK 02 AUDIO
    TITLE "7:cjc056_3478"
    INDEX 01 00:00:07
  TRACK 03 AUDIO
    TITLE "0:"
    INDEX 01 00:01:28
  TRACK 04 AUDIO
    TITLE "8:cjc056_3479"
    INDEX 01 00:01:44
  TRACK 05 AUDIO
    TITLE "0:"
    INDEX 01 00:03:00
  TRACK 06 AUDIO
    TITLE "9:cjc056_3480"
    INDEX 01 00:03:12
  TRACK 07 AUDIO
    TITLE "0:"
    INDEX 01 00:06:12
  TRACK 08 AUDIO
    TITLE "7:cjc056_3481"
    INDEX 01 00:06:67
  TRACK 09 AUDIO
    TITLE "0:"
    INDEX 01 00:07:66
  TRACK 10 AUDIO
    TITLE "8:cjc056_3482"
    INDEX 01 00:08:07
  TRACK 11 AUDIO
    TITLE "0:"
    INDEX 01 00:09:38
  TRACK 12 AUDIO
    TITLE "9:cjc056_3483"
    INDEX 01 00:09:53
  TRACK 13 AUDIO
    TITLE "0:"
    INDEX 01 00:12:44
  TRACK 14 AUDIO
    TITLE "7:cjc056_3484"
    INDEX 01 00:13:20
  TRACK 15 AUDIO
    TITLE "0:"
    INDEX 01 00:14:29
  TRACK 16 AUDIO
    TITLE "8:cjc056_3485"
    INDEX 01 00:14:43
  TRACK 17 AUDIO
    TITLE "0:"
    INDEX 01 00:15:64
  TRACK 18 AUDIO
    TITLE "9:cjc056_3486"
    INDEX 01 00:16:02
  TRACK 19 AUDIO
    TITLE "0:"
    INDEX 01 00:19:07
  TRACK 20 AUDIO
    TITLE "7:cjc056_3487"
    INDEX 01 00:19:58
  TRACK 21 AUDIO
    TITLE "0:"
    INDEX 01 00:20:71
  TRACK 22 AUDIO
    TITLE "8:cjc056_3488"
    INDEX 01 00:21:06
  TRACK 23 AUDIO
    TITLE "0:"
    INDEX 01 00:22:27
  TRACK 24 AUDIO
    TITLE "9:cjc056_3489"
    INDEX 01 00:22:42
  TRACK 25 AUDIO
    TITLE "0:"
    INDEX 01 00:25:50
  TRACK 26 AUDIO
    TITLE "7:cjc056_3490"
    INDEX 01 00:26:26
  TRACK 27 AUDIO
    TITLE "0:"
    INDEX 01 00:27:51
  TRACK 28 AUDIO
    TITLE "8:cjc056_3491"
    INDEX 01 00:27:67
  TRACK 29 AUDIO
    TITLE "0:"
    INDEX 01 00:29:25
  TRACK 30 AUDIO
    TITLE "9:cjc056_3492"
    INDEX 01 00:29:34
  TRACK 31 AUDIO
    TITLE "0:"
    INDEX 01 00:32:43
  TRACK 32 AUDIO
    TITLE "7:cjc056_3493"
    INDEX 01 00:33:21
  TRACK 33 AUDIO
    TITLE "0:"
    INDEX 01 00:34:28
  TRACK 34 AUDIO
    TITLE "8:cjc056_3494"
    INDEX 01 00:34:45
  TRACK 35 AUDIO
    TITLE "0:"
    INDEX 01 00:36:01
  TRACK 36 AUDIO
    TITLE "9:cjc056_3495"
    INDEX 01 00:36:15
  TRACK 37 AUDIO
    TITLE "0:"
    INDEX 01 00:39:05
  TRACK 38 AUDIO
    TITLE "7:cjc056_3496"
    INDEX 01 00:39:58
  TRACK 39 AUDIO
    TITLE "0:"
    INDEX 01 00:40:66
  TRACK 40 AUDIO
    TITLE "8:cjc056_3497"
    INDEX 01 00:41:04
  TRACK 41 AUDIO
    TITLE "0:"
    INDEX 01 00:42:18
  TRACK 42 AUDIO
    TITLE "9:cjc056_3498"
    INDEX 01 00:42:31
  TRACK 43 AUDIO
    TITLE "0:"
    INDEX 01 00:46:15
  TRACK 44 AUDIO
    TITLE "7:cjc056_3499"
    INDEX 01 00:46:66
  TRACK 45 AUDIO
    TITLE "0:"
    INDEX 01 00:48:18
  TRACK 46 AUDIO
    TITLE "8:cjc056_3500"
    INDEX 01 00:48:28
  TRACK 47 AUDIO
    TITLE "0:"
    INDEX 01 00:50:17
  TRACK 48 AUDIO
    TITLE "9:cjc056_3501"
    INDEX 01 00:50:27
  TRACK 49 AUDIO
    TITLE "0:"
    INDEX 01 00:53:57
  TRACK 50 AUDIO
    TITLE "7:cjc056_3502"
    INDEX 01 00:54:32
  TRACK 51 AUDIO
    TITLE "0:"
    INDEX 01 00:55:34
  TRACK 52 AUDIO
    TITLE "8:cjc056_3503"
    INDEX 01 00:55:48
  TRACK 53 AUDIO
    TITLE "0:"
    INDEX 01 00:56:37
  TRACK 54 AUDIO
    TITLE "9:cjc056_3504"
    INDEX 01 00:56:49
  TRACK 55 AUDIO
    TITLE "0:"
    INDEX 01 00:59:39
  TRACK 56 AUDIO
    TITLE "7:cjc056_3505"
    INDEX 01 01:00:17
  TRACK 57 AUDIO
    TITLE "0:"
    INDEX 01 01:01:27
  TRACK 58 AUDIO
    TITLE "8:cjc056_3506"
    INDEX 01 01:01:42
  TRACK 59 AUDIO
    TITLE "0:"
    INDEX 01 01:02:59
  TRACK 60 AUDIO
    TITLE "9:cjc056_3507"
    INDEX 01 01:02:71
  TRACK 61 AUDIO
    TITLE "0:"
    INDEX 01 01:05:42
  TRACK 62 AUDIO
    TITLE "7:cjc056_3508"
    INDEX 01 01:06:20
  TRACK 63 AUDIO
    TITLE "0:"
    INDEX 01 01:07:23
  TRACK 64 AUDIO
    TITLE "8:cjc056_3509"
    INDEX 01 01:07:39
  TRACK 65 AUDIO
    TITLE "0:"
    INDEX 01 01:08:62
  TRACK 66 AUDIO
    TITLE "9:cjc056_3510"
    INDEX 01 01:08:74
  TRACK 67 AUDIO
    TITLE "0:"
    INDEX 01 01:12:38
